<?xml version="1.0" standalone="no"?>
<!DOCTYPE svg PUBLIC "-//W3C//DTD SVG 20010904//EN"
 "http://www.w3.org/TR/2001/REC-SVG-20010904/DTD/svg10.dtd">
<svg version="1.0" xmlns="http://www.w3.org/2000/svg"
 width="310.000000pt" height="310.000000pt" viewBox="0 0 310.000000 310.000000"
 preserveAspectRatio="xMidYMid meet">
<metadata>
Created by potrace 1.11, written by Peter Selinger 2001-2013
</metadata>
<g transform="translate(0.000000,310.000000) scale(0.100000,-0.100000)"
fill="#000000" stroke="none">
<path d="M2221 3068 c-6 -17 -11 -41 -11 -54 0 -18 -12 -29 -51 -49 -29 -14
-78 -48 -111 -75 -33 -28 -64 -50 -70 -50 -10 0 -39 -26 -38 -35 1 -16 -2 -22
-24 -47 -13 -16 -30 -28 -38 -28 -8 0 -20 -11 -26 -25 -17 -36 -14 -54 4 -30
13 18 14 17 8 -15 -3 -19 -10 -46 -14 -60 -5 -14 -11 -56 -13 -95 -3 -57 -6
-70 -19 -69 -17 2 -31 -43 -17 -52 5 -3 9 2 9 10 0 23 17 20 31 -5 13 -25 -5
-54 -20 -31 -15 24 -12 -88 3 -116 16 -30 28 -62 30 -77 3 -24 18 -55 27 -55
5 0 9 -6 9 -14 0 -7 7 -19 15 -26 8 -7 15 -19 15 -27 0 -7 9 -27 21 -42 16
-21 19 -33 12 -46 -9 -15 -12 -14 -31 10 -12 15 -22 34 -22 41 0 8 -7 14 -16
14 -11 0 -8 -9 13 -37 15 -21 34 -42 40 -46 7 -4 13 -15 13 -22 0 -8 6 -15 14
-15 8 0 22 -7 31 -16 9 -10 26 -14 40 -12 16 3 31 -2 41 -13 10 -11 21 -19 26
-19 13 0 9 28 -4 33 -10 4 -10 6 -1 6 13 1 39 -38 35 -51 -3 -11 80 -70 87
-63 3 4 -1 11 -9 16 -13 9 -13 10 0 6 8 -2 14 -14 13 -26 -2 -16 6 -25 35 -37
20 -9 31 -18 24 -21 -7 -3 -24 2 -37 11 -27 17 -65 21 -65 7 0 -5 16 -19 35
-31 30 -19 55 -22 183 -27 131 -5 150 -4 165 11 9 10 22 14 27 11 6 -4 17 -2
24 4 7 6 35 15 62 21 27 5 66 14 86 19 22 5 36 5 32 0 -3 -5 1 -9 9 -9 8 0 17
7 21 15 3 8 15 15 26 15 12 0 38 17 58 39 37 38 62 54 137 87 22 9 43 22 47
28 4 6 8 77 8 158 0 136 -1 147 -17 141 -15 -5 -16 -3 -5 8 6 7 12 17 12 22 0
4 -6 5 -12 1 -10 -6 -10 -5 -1 8 7 8 10 18 6 21 -3 4 -1 7 4 7 8 0 12 74 12
235 l2 235 -28 12 -28 12 28 4 c16 2 27 9 27 19 0 10 -6 14 -20 10 -42 -11
-84 12 -142 77 -31 35 -75 72 -97 83 -22 11 -38 22 -35 25 8 9 -137 69 -211
88 -41 10 -131 20 -217 24 l-146 6 -11 -32z m546 -92 c0 -7 -9 -19 -19 -25
-18 -11 -18 -11 -2 14 19 29 21 30 21 11z m40 -48 c-3 -8 -6 -5 -6 6 -1 11 2
17 5 13 3 -3 4 -12 1 -19z m13 -62 c0 -3 -4 -8 -10 -11 -5 -3 -10 -1 -10 4 0
6 5 11 10 11 6 0 10 -2 10 -4z m47 -162 c-3 -3 -12 -4 -19 -1 -8 3 -5 6 6 6
11 1 17 -2 13 -5z m53 -19 c7 -9 11 -17 8 -20 -2 -2 -12 4 -21 15 -9 11 -13
20 -8 20 5 0 14 -7 21 -15z m30 -115 c0 -5 -10 -10 -22 -9 -22 0 -22 1 -3 9
11 5 21 9 23 9 1 1 2 -3 2 -9z m-1015 -127 c4 -17 2 -23 -8 -23 -8 0 -17 11
-19 25 -9 44 13 43 27 -2z m-49 0 c-7 -7 -26 7 -26 19 0 6 6 6 15 -2 9 -7 13
-15 11 -17z m972 -35 c7 -10 24 -18 37 -18 35 0 42 -20 14 -41 -32 -25 -33
-24 -73 17 -29 30 -33 39 -23 54 12 20 24 17 45 -12z m-878 -53 c0 -9 7 -18
15 -21 8 -4 15 -11 15 -16 0 -7 -4 -7 -13 0 -8 7 -18 7 -27 2 -12 -8 -12 -10
4 -10 14 0 16 -3 7 -13 -7 -9 -7 -17 0 -24 6 -6 -2 -10 -28 -11 -56 -2 -74 48
-31 88 26 24 58 26 58 5z m-101 -99 c12 -38 20 -70 18 -72 -2 -2 -11 2 -21 9
-11 8 -17 27 -18 55 0 23 -4 42 -8 42 -10 0 -20 37 -12 45 9 9 18 -7 41 -79z
m563 -60 c-3 -5 -9 -1 -13 10 -12 31 -10 39 5 19 8 -11 12 -24 8 -29z m-458
-1 c3 -9 0 -15 -9 -15 -8 0 -15 7 -15 15 0 8 4 15 9 15 5 0 11 -7 15 -15z m86
5 c0 -5 -5 -10 -11 -10 -5 0 -7 5 -4 10 3 6 8 10 11 10 2 0 4 -4 4 -10z m340
-15 c0 -8 -4 -15 -10 -15 -5 0 -10 7 -10 15 0 8 5 15 10 15 6 0 10 -7 10 -15z
m-476 -81 c18 -35 30 -64 25 -64 -4 0 -14 10 -20 22 -6 12 -24 32 -40 46 -17
14 -29 34 -29 48 0 39 27 18 64 -52z m526 61 c0 -8 -4 -15 -10 -15 -5 0 -10 7
-10 15 0 8 5 15 10 15 6 0 10 -7 10 -15z m253 -32 c4 -3 -5 -12 -19 -19 -32
-17 -55 -7 -29 13 20 14 38 17 48 6z m-263 -18 c0 -8 -4 -15 -10 -15 -5 0 -10
7 -10 15 0 8 5 15 10 15 6 0 10 -7 10 -15z m-25 -25 c3 -5 1 -10 -4 -10 -6 0
-11 5 -11 10 0 6 2 10 4 10 3 0 8 -4 11 -10z m55 -40 c0 -5 -5 -10 -11 -10 -5
0 -7 5 -4 10 3 6 8 10 11 10 2 0 4 -4 4 -10z"/>
<path d="M1815 2610 c-3 -5 -1 -10 4 -10 6 0 11 5 11 10 0 6 -2 10 -4 10 -3 0
-8 -4 -11 -10z"/>
<path d="M765 2215 c-27 -8 -82 -30 -122 -50 -62 -31 -76 -43 -90 -75 -10 -21
-28 -44 -40 -51 -13 -7 -23 -18 -23 -24 0 -19 -46 -56 -61 -50 -10 4 -21 -6
-32 -27 -9 -18 -24 -43 -33 -55 -15 -21 -15 -23 0 -23 13 0 13 -3 -4 -20 -11
-11 -21 -27 -21 -35 -3 -28 -4 -33 -11 -41 -11 -11 -10 -36 1 -30 5 4 32 -8
60 -25 38 -24 65 -33 107 -35 51 -3 55 -1 49 17 -4 11 -2 19 4 19 6 0 11 -7
11 -15 0 -8 6 -15 13 -15 7 -1 5 -6 -5 -14 -10 -7 -18 -18 -18 -24 0 -6 31
-38 70 -73 66 -58 82 -79 61 -79 -16 0 -141 135 -141 153 0 14 -7 16 -37 13
-36 -5 -141 24 -170 47 -9 6 -17 -3 -30 -32 -10 -23 -21 -41 -25 -41 -5 0 -8
-4 -8 -10 0 -5 7 -10 16 -10 14 0 14 -2 0 -22 -22 -32 -20 -67 6 -90 21 -18
21 -20 5 -29 -9 -6 -17 -17 -17 -26 0 -13 3 -14 12 -5 20 20 26 14 38 -41 14
-68 60 -161 95 -191 15 -13 24 -29 21 -35 -5 -7 -1 -8 10 -4 14 5 16 3 11 -11
-7 -19 3 -45 29 -70 14 -15 14 -16 0 -16 -9 0 -16 -4 -16 -10 0 -14 104 -94
108 -82 5 15 36 3 50 -19 16 -26 8 -38 -21 -32 -19 4 -19 2 8 -19 40 -31 88
-52 82 -35 -2 6 -10 12 -17 12 -7 0 -15 5 -17 12 -6 17 88 -14 105 -35 7 -10
12 -11 12 -4 0 21 28 13 58 -16 15 -15 35 -26 45 -24 11 2 17 -3 17 -14 0 -13
6 -15 33 -10 17 3 37 14 44 22 7 9 19 14 28 11 13 -6 16 -13 15 -44 0 -4 -14
-6 -31 -4 -22 2 -30 -1 -27 -10 3 -10 27 -13 94 -11 91 3 213 22 182 30 -10 2
-18 8 -18 13 0 12 27 12 35 -1 3 -5 15 -6 28 -1 25 10 31 11 51 11 8 0 70 37
138 82 68 46 136 89 151 97 15 8 25 16 22 19 -2 3 15 18 38 33 23 16 52 36 65
45 19 14 31 15 74 6 32 -6 61 -6 76 -1 36 14 92 11 92 -4 0 -9 43 -22 128 -40
192 -41 653 -148 826 -192 54 -14 109 -25 122 -25 l24 0 0 155 c0 145 -1 155
-19 155 -10 0 -32 7 -47 15 -16 8 -36 15 -45 15 -9 0 -77 15 -150 34 -74 19
-233 57 -354 85 -303 71 -443 108 -492 132 -55 27 -180 143 -228 214 -21 30
-42 55 -47 55 -13 0 32 -77 61 -107 24 -24 55 -93 45 -102 -2 -3 -10 1 -16 7
-7 7 -23 12 -36 12 -17 0 -22 4 -19 15 4 8 2 17 -3 20 -5 3 -6 13 -3 23 6 15
5 15 -10 4 -9 -8 -24 -12 -34 -10 -16 3 -16 4 -2 18 23 21 5 66 -32 86 -16 8
-29 19 -29 24 0 6 -7 10 -15 10 -16 0 -20 16 -6 24 5 3 7 14 5 24 -2 9 0 24 5
32 8 12 14 11 37 -10 l27 -25 -13 24 c-18 35 -80 120 -115 159 -16 19 -34 40
-38 48 -35 62 -302 236 -339 221 -9 -4 -6 -8 10 -12 12 -4 22 -11 22 -16 0
-15 -45 -10 -81 8 -34 18 -58 23 -111 25 -31 1 -38 24 -10 31 9 3 -32 5 -93 5
-63 0 -131 -6 -160 -13z m135 -4 c0 -4 -11 -6 -25 -3 -14 2 -25 6 -25 8 0 2
11 4 25 4 14 0 25 -4 25 -9z m50 -1 c0 -5 -2 -10 -4 -10 -3 0 -8 5 -11 10 -3
6 -1 10 4 10 6 0 11 -4 11 -10z m-279 -82 c-12 -12 -26 -36 -30 -53 -5 -17
-10 -22 -10 -12 -2 29 45 105 57 93 2 -3 -6 -15 -17 -28z m149 12 c0 -5 -9
-14 -20 -20 -22 -12 -27 -1 -8 18 14 14 28 16 28 2z m-71 -74 c6 -4 11 -12 11
-17 0 -6 -12 -1 -27 11 l-28 22 -6 -36 c-3 -20 -16 -47 -29 -61 -17 -18 -21
-32 -17 -52 3 -16 -1 -39 -9 -53 -12 -22 -14 -22 -13 -5 2 36 -1 58 -8 52 -3
-4 -6 -25 -5 -47 1 -22 -2 -40 -6 -40 -15 0 -13 82 3 135 9 32 26 62 45 78 16
15 30 35 30 45 0 32 13 33 31 3 9 -16 22 -32 28 -35z m61 -52 c0 -3 -6 -1 -13
5 -8 6 -17 8 -21 4 -4 -4 -4 0 -1 10 6 14 9 14 21 2 8 -7 14 -17 14 -21z m167
-3 c-1 -21 -5 -37 -9 -34 -12 6 -10 73 2 73 5 0 9 -18 7 -39z m448 27 c43 -19
29 -31 -27 -24 -59 8 -63 10 -53 25 8 14 48 14 80 -1z m-511 -14 c4 -9 4 -19
1 -22 -3 -3 -5 0 -5 6 0 7 -7 12 -15 12 -8 0 -15 5 -15 10 0 16 27 11 34 -6z
m361 6 c-3 -5 -14 -10 -23 -10 -15 0 -15 2 -2 10 20 13 33 13 25 0z m-425 -27
c0 -5 17 -19 38 -33 20 -14 41 -30 45 -37 4 -7 15 -13 22 -13 8 0 15 -5 15
-11 0 -18 -42 1 -83 37 -20 19 -42 34 -47 34 -6 0 -10 7 -10 15 0 8 5 15 10
15 6 0 10 -3 10 -7z m340 -7 c0 -2 -7 -9 -15 -16 -13 -11 -14 -10 -9 4 5 14
24 23 24 12z m290 -83 c0 -2 -4 -1 -10 2 -18 11 -10 -7 20 -45 21 -26 26 -40
18 -42 -10 -4 -10 -10 1 -30 7 -15 11 -31 7 -36 -3 -5 1 -15 9 -22 11 -9 12
-16 5 -25 -6 -7 -10 -17 -9 -21 7 -40 -14 -61 -24 -24 -3 11 -13 20 -23 20
-16 0 -16 -2 2 -22 18 -20 18 -21 1 -15 -10 4 -23 7 -28 7 -5 0 -13 10 -17 21
-6 16 -19 22 -46 25 -33 3 -36 1 -31 -16 4 -12 2 -20 -4 -20 -6 0 -11 6 -12
13 0 6 -2 20 -4 30 -3 14 1 16 16 12 10 -4 19 -4 19 0 0 8 -43 69 -52 73 -5 2
-8 8 -8 12 0 5 16 2 35 -6 30 -12 34 -12 29 1 -4 8 -10 15 -14 15 -11 0 -21
30 -14 41 3 6 11 5 20 -2 11 -9 14 -8 14 5 0 9 -7 16 -15 16 -8 0 -15 5 -15
11 0 6 7 9 15 5 8 -3 15 -1 15 5 0 5 17 25 37 44 l37 34 13 -31 c7 -17 13 -32
13 -35z m-325 36 c4 -11 4 -23 1 -26 -3 -4 -6 -1 -6 5 0 6 -7 9 -15 6 -8 -4
-15 -12 -15 -20 0 -8 -7 -14 -15 -14 -22 0 -18 27 5 33 13 3 18 10 14 21 -4
10 -1 16 9 16 9 0 19 -9 22 -21z m-271 -23 c14 -19 26 -39 26 -45 0 -6 7 -11
16 -11 8 0 32 -16 52 -35 20 -19 31 -35 25 -35 -7 0 -13 -4 -13 -10 0 -5 7
-10 15 -10 10 0 15 -9 14 -27 0 -28 0 -28 -10 -5 -5 13 -18 26 -29 29 -11 3
-20 11 -20 17 0 7 -7 13 -15 13 -11 0 -13 -6 -9 -21 l7 -21 -23 20 c-53 46
-76 73 -72 84 3 9 7 9 18 0 20 -17 26 -6 15 25 -12 30 -41 35 -41 7 0 -11 -5
-23 -11 -26 -6 -4 -8 -14 -5 -22 11 -27 -104 -157 -122 -138 -4 4 -1 10 6 12
20 8 73 55 68 61 -3 2 3 17 13 31 19 26 19 27 0 50 -23 28 -25 51 -4 51 8 0
24 9 35 20 27 27 33 26 64 -14z m-376 -35 c3 -8 -1 -12 -9 -9 -7 2 -15 10 -17
17 -3 8 1 12 9 9 7 -2 15 -10 17 -17z m-68 -30 c0 -6 -4 -13 -10 -16 -5 -3
-10 1 -10 9 0 9 5 16 10 16 6 0 10 -4 10 -9z m764 -25 c-10 -8 -21 -12 -24
-10 -5 6 21 24 34 24 6 0 1 -6 -10 -14z m-494 -5 c0 -5 3 -16 6 -25 4 -12 0
-16 -16 -16 -18 0 -21 -4 -16 -24 4 -17 1 -26 -12 -31 -28 -12 -61 -14 -68 -4
-3 5 -35 7 -72 4 l-67 -5 44 15 c31 10 55 12 82 6 53 -12 72 3 60 46 -10 34
-4 41 37 42 12 1 22 -3 22 -8z m125 -51 c-3 -5 0 -10 7 -10 27 0 98 -36 99
-50 1 -11 3 -10 6 3 2 9 9 15 14 11 6 -3 16 -1 23 5 11 9 15 5 18 -19 5 -33
-7 -49 -24 -32 -8 8 -15 6 -26 -5 -13 -13 -17 -13 -21 -2 -11 35 -76 74 -105
63 -10 -4 -12 2 -9 20 3 14 10 26 15 26 5 0 6 -4 3 -10z m469 -16 c23 -9 20
-24 -4 -24 -11 0 -20 7 -20 15 0 17 2 18 24 9z m-188 -41 c-10 -10 -19 5 -10
18 6 11 8 11 12 0 2 -7 1 -15 -2 -18z m-236 -7 c0 -3 -4 -8 -10 -11 -5 -3 -10
-1 -10 4 0 6 5 11 10 11 6 0 10 -2 10 -4z m-18 -32 c5 -3 1 -12 -9 -20 -16
-12 -16 -15 -3 -24 13 -8 13 -10 -2 -10 -9 0 -19 4 -23 10 -3 5 -25 9 -49 8
-49 -1 -146 22 -146 34 0 12 18 10 74 -7 34 -10 53 -12 60 -5 7 7 5 10 -4 10
-13 0 -13 2 0 11 14 9 83 5 102 -7z m195 -6 c-3 -8 -6 -5 -6 6 -1 11 2 17 5
13 3 -3 4 -12 1 -19z m56 2 c3 -11 14 -20 25 -20 22 0 38 -18 36 -40 -1 -8 -2
-23 -3 -32 0 -10 -5 -18 -11 -18 -16 0 -51 40 -45 50 4 6 -1 10 -9 10 -19 0
-21 16 -3 24 10 5 10 7 0 12 -15 6 -18 34 -4 34 5 0 11 -9 14 -20z m-705 -36
c5 -9 12 -15 15 -15 19 3 27 0 27 -8 0 -5 -10 -7 -22 -3 -20 5 -21 4 -10 -11
12 -14 10 -15 -25 -10 -48 7 -67 23 -27 23 20 0 25 3 15 9 -7 5 -10 14 -7 20
10 16 24 14 34 -5z m663 -20 c26 -28 24 -34 -13 -27 -14 3 -28 13 -31 24 -3
11 -14 19 -27 19 -11 0 -19 4 -16 8 9 16 64 0 87 -24z m592 -41 c7 -6 -20 -23
-58 -36 -14 -5 -11 1 10 18 32 26 38 29 48 18z m-923 -13 c13 -8 13 -11 1 -22
-10 -10 -15 -10 -18 -1 -2 7 -11 9 -19 6 -14 -5 -19 8 -7 20 9 10 25 8 43 -3z
m527 -2 c15 -19 22 -58 11 -58 -5 0 -6 -9 -3 -20 3 -11 2 -20 -3 -20 -14 0
-36 29 -28 37 3 3 -3 12 -14 20 -11 8 -25 23 -30 34 -10 17 -7 19 23 19 19 0
39 -6 44 -12z m-772 -34 c2 -16 6 -40 10 -54 l7 -25 -20 24 -20 25 -5 -25 c-3
-13 -5 -5 -4 19 2 37 0 42 -20 42 -12 0 -25 5 -29 11 -5 9 4 10 31 5 27 -5 35
-4 30 5 -5 7 -3 10 5 7 7 -2 14 -17 15 -34z m133 -30 c23 -15 42 -34 42 -41 0
-20 -17 -15 -23 7 -3 11 -14 20 -25 20 -10 0 -27 9 -36 19 -10 11 -25 22 -35
24 -9 2 -4 3 10 1 14 -1 44 -15 67 -30z m1032 22 c0 -29 -129 -32 -146 -4 -5
8 1 9 17 4 13 -3 34 -9 45 -12 13 -3 27 1 35 10 18 19 49 21 49 2z m55 4 c3
-5 2 -10 -4 -10 -5 0 -13 5 -16 10 -3 6 -2 10 4 10 5 0 13 -4 16 -10z m-945
-9 c0 -6 -4 -13 -10 -16 -5 -3 -10 1 -10 9 0 9 5 16 10 16 6 0 10 -4 10 -9z
m42 -38 c25 -23 23 -36 -6 -31 -15 3 -27 0 -30 -8 -3 -8 -10 -14 -16 -14 -13
0 -1 52 14 62 15 11 17 10 38 -9z m108 -3 c0 -5 -2 -10 -4 -10 -3 0 -8 5 -11
10 -3 6 -1 10 4 10 6 0 11 -4 11 -10z m-516 -26 c9 -23 6 -23 -34 -2 l-35 18
31 0 c20 0 34 -6 38 -16z m541 6 c3 -5 1 -10 -4 -10 -6 0 -11 5 -11 10 0 6 2
10 4 10 3 0 8 -4 11 -10z m-357 -28 c4 -25 -1 -27 -29 -12 -26 15 -24 37 4 35
14 -1 23 -9 25 -23z m137 18 c3 -5 4 -10 1 -10 -2 0 -11 -3 -19 -6 -8 -3 -17
2 -20 10 -7 18 27 23 38 6z m257 -22 c-6 -6 -15 -8 -19 -4 -4 4 -1 11 7 16 8
5 17 7 19 4 3 -2 -1 -10 -7 -16z m754 -5 c-8 -8 -36 5 -36 17 0 7 6 7 21 0 11
-7 18 -14 15 -17z m119 16 c11 -17 -1 -21 -15 -4 -8 9 -8 15 -2 15 6 0 14 -5
17 -11z m-1355 -48 c0 -4 -16 -5 -35 -3 -34 4 -52 32 -20 32 8 0 15 6 15 13 1
12 40 -29 40 -42z m30 39 c0 -5 -4 -10 -10 -10 -5 0 -10 5 -10 10 0 6 5 10 10
10 6 0 10 -4 10 -10z m858 -21 c-3 -8 -7 -3 -11 10 -4 17 -3 21 5 13 5 -5 8
-16 6 -23z m-698 -4 c7 -8 18 -15 25 -15 11 0 65 -54 65 -66 0 -3 -15 6 -32
20 -18 15 -46 38 -63 51 -16 13 -25 25 -19 25 6 0 17 -7 24 -15z m1238 -55
c14 0 20 -5 16 -14 -3 -8 3 -16 16 -19 26 -7 18 -27 -11 -27 -22 0 -26 -29 -6
-50 7 -7 1 -6 -12 3 -26 18 -51 8 -51 -19 0 -8 -7 -14 -16 -14 -9 0 -28 -9
-42 -21 -25 -19 -27 -19 -33 -2 -7 16 -8 15 -8 -4 -1 -13 -6 -23 -12 -23 -6 0
-9 -9 -6 -20 4 -17 2 -20 -14 -15 -25 8 -46 -4 -28 -17 10 -7 8 -8 -7 -4 -13
4 -27 -1 -39 -14 -14 -15 -21 -17 -32 -9 -10 9 -13 8 -13 -6 0 -11 -5 -15 -16
-11 -12 5 -14 1 -8 -17 7 -22 6 -22 -15 -3 -22 20 -28 46 -11 46 14 0 13 33
-2 48 -9 9 -9 12 0 12 19 0 62 49 56 65 -7 18 0 19 26 5 12 -7 26 -7 42 0 22
10 22 10 -3 5 -21 -4 -28 1 -37 20 -9 19 -9 25 1 26 23 2 42 -3 49 -14 4 -8
11 -7 21 1 10 8 29 10 57 6 34 -6 46 -4 55 9 6 9 23 21 36 26 21 8 21 10 4 10
-11 0 -29 -6 -39 -14 -35 -26 -52 -18 -25 12 18 19 19 25 7 20 -10 -3 -20 -2
-23 3 -6 10 14 24 35 25 10 0 14 8 12 25 l-3 24 29 -27 c15 -15 38 -27 50 -27z
m-1320 23 c46 -11 31 -23 -27 -23 -71 0 -107 -24 -96 -63 6 -21 6 -22 -9 -3
-9 11 -16 25 -16 32 0 18 93 75 110 68 8 -4 25 -9 38 -11z m750 -51 c2 -7 0
-12 -5 -12 -18 0 -53 13 -53 19 0 12 54 5 58 -7z m-678 -1 c0 -10 -36 -21 -65
-20 -16 0 -13 4 10 14 35 16 55 19 55 6z m47 3 c-3 -3 -12 -4 -19 -1 -8 3 -5
6 6 6 11 1 17 -2 13 -5z m-7 -28 c0 -3 -4 -8 -10 -11 -5 -3 -10 -1 -10 4 0 6
5 11 10 11 6 0 10 -2 10 -4z m470 -16 c0 -5 -4 -10 -9 -10 -6 0 -13 5 -16 10
-3 6 1 10 9 10 9 0 16 -4 16 -10z m125 -11 c-3 -5 1 -6 9 -3 15 6 95 -36 116
-61 15 -18 30 -118 20 -129 -4 -4 -8 -2 -7 5 2 49 -6 81 -26 104 -22 26 -23
26 -90 15 -37 -7 -74 -9 -83 -6 -15 6 -15 8 -2 24 25 29 31 43 17 41 -29 -3
-62 1 -55 8 4 4 22 6 41 5 18 -2 36 2 40 7 3 6 11 9 16 5 5 -3 7 -10 4 -15z
m-550 1 c3 -5 1 -10 -4 -10 -6 0 -11 5 -11 10 0 6 2 10 4 10 3 0 8 -4 11 -10z
m103 -15 c-6 -14 -15 -25 -20 -25 -5 0 -1 11 8 25 9 14 18 25 20 25 2 0 -2
-11 -8 -25z m1176 -10 c3 -9 18 -15 35 -15 16 0 33 -5 36 -10 5 -8 11 -8 20 0
9 8 14 6 19 -6 11 -28 -10 -40 -42 -23 -27 15 -52 16 -107 5 -33 -7 -61 6 -51
23 4 6 23 11 41 11 26 0 33 3 29 15 -4 8 -2 15 4 15 5 0 12 -7 16 -15z m-1394
-23 c0 -9 -81 -45 -87 -38 -11 11 8 38 22 32 8 -3 17 -1 20 4 7 12 45 13 45 2z
m425 -2 c3 -5 1 -10 -4 -10 -6 0 -11 5 -11 10 0 6 2 10 4 10 3 0 8 -4 11 -10z
m-389 -36 c0 -31 -1 -33 -9 -16 -8 18 -4 52 6 52 2 0 3 -16 3 -36z m148 27 c3
-5 -3 -11 -14 -14 -13 -3 -20 0 -20 9 0 15 26 19 34 5z m1402 -17 c-3 -9 -6
-20 -6 -25 0 -21 -15 -7 -16 16 -1 16 3 25 13 25 10 0 13 -6 9 -16z m-1229
-17 c-6 -20 -26 -19 -24 1 1 12 6 18 14 15 8 -3 12 -10 10 -16z m63 2 c0 -5
-4 -9 -10 -9 -5 0 -10 7 -10 16 0 8 5 12 10 9 6 -3 10 -10 10 -16z m1120 11
c0 -5 -2 -10 -4 -10 -3 0 -8 5 -11 10 -3 6 -1 10 4 10 6 0 11 -4 11 -10z
m-1290 -6 c0 -4 -8 -13 -17 -20 -17 -13 -17 -15 0 -28 9 -7 17 -18 17 -25 0
-15 -27 -14 -33 2 -2 6 -8 9 -12 5 -11 -11 14 -38 35 -38 29 0 31 -27 3 -54
-14 -14 -29 -26 -34 -26 -7 0 -31 34 -35 50 -1 6 -13 38 -25 68 -8 20 -5 23
21 28 16 4 37 15 46 25 17 19 34 25 34 13z m335 -4 c3 -5 1 -10 -4 -10 -6 0
-11 5 -11 10 0 6 2 10 4 10 3 0 8 -4 11 -10z m110 0 c-3 -5 -14 -10 -23 -10
-15 0 -15 2 -2 10 20 13 33 13 25 0z m1015 -22 c0 -6 -7 -5 -15 2 -8 7 -15 17
-15 22 0 6 7 5 15 -2 8 -7 15 -17 15 -22z m-1535 13 c-6 -6 -23 -12 -39 -15
-17 -3 -25 -2 -20 4 5 4 20 10 34 13 14 2 27 5 30 6 2 0 0 -3 -5 -8z m390 -11
c3 -5 1 -10 -4 -10 -6 0 -11 5 -11 10 0 6 2 10 4 10 3 0 8 -4 11 -10z m645 6
c0 -2 -7 -7 -16 -10 -8 -3 -12 -2 -9 4 6 10 25 14 25 6z m-610 -44 c0 -7 -4
-10 -10 -7 -5 3 -10 16 -10 28 0 18 2 19 10 7 5 -8 10 -21 10 -28z m930 24 c0
-8 -51 -13 -56 -5 -3 5 9 9 25 9 17 0 31 -2 31 -4z m225 -6 c-3 -5 -12 -10
-18 -10 -7 0 -6 4 3 10 19 12 23 12 15 0z m-1245 -10 c0 -5 -4 -10 -10 -10 -5
0 -10 5 -10 10 0 6 5 10 10 10 6 0 10 -4 10 -10z m1310 -1 c0 -5 8 -9 18 -8
32 3 52 -1 52 -10 0 -5 -9 -7 -20 -4 -13 3 -22 -1 -26 -11 -8 -22 4 -35 16
-17 8 15 40 8 40 -8 0 -12 -20 -19 -80 -27 -42 -6 -50 -4 -50 10 0 11 9 16 30
16 23 0 30 4 30 20 0 22 -16 27 -23 8 -2 -7 -8 -9 -13 -5 -5 4 -2 12 5 16 7 5
10 14 7 20 -4 6 -2 11 3 11 6 0 11 -5 11 -11z m-1470 -20 c0 -6 -4 -7 -10 -4
-5 3 -10 11 -10 16 0 6 5 7 10 4 6 -3 10 -11 10 -16z m1350 11 c0 -5 -4 -10
-10 -10 -5 0 -10 5 -10 10 0 6 5 10 10 10 6 0 10 -4 10 -10z m-1239 -23 c-13
-13 -26 -3 -16 12 3 6 11 8 17 5 6 -4 6 -10 -1 -17z m1179 2 c0 -5 -7 -9 -16
-9 -8 0 -13 -4 -9 -10 3 -5 13 -7 23 -4 16 5 16 5 0 -6 -22 -14 -53 1 -55 27
-1 16 4 19 28 15 16 -2 29 -8 29 -13z m-1538 -56 c-5 -10 -7 -23 -5 -29 6 -18
-45 -4 -51 13 -5 12 -1 14 14 10 11 -3 23 -1 26 4 3 5 -1 9 -8 9 -7 0 -19 9
-26 21 -8 12 -9 18 -3 14 6 -3 11 1 11 11 0 13 5 12 26 -9 19 -20 23 -30 16
-44z m-114 19 c6 -18 -15 -14 -22 4 -4 10 -1 14 6 12 6 -2 14 -10 16 -16z
m1762 -13 c14 -25 3 -41 -11 -16 -6 9 -17 17 -24 17 -8 0 -15 5 -15 10 0 19
39 10 50 -11z m240 11 c-20 -13 -43 -13 -35 0 3 6 16 10 28 10 18 0 19 -2 7
-10z m-1580 -25 c-7 -8 -17 -15 -23 -15 -6 0 -2 7 9 15 25 19 30 19 14 0z
m-249 -7 c7 -77 7 -79 -8 -74 -8 3 -18 6 -23 6 -4 0 -10 9 -13 20 -4 14 0 20
11 21 11 0 13 2 4 6 -10 4 -10 8 -1 19 14 17 29 18 30 2z m709 2 c0 -5 -4 -10
-10 -10 -5 0 -10 5 -10 10 0 6 5 10 10 10 6 0 10 -4 10 -10z m1344 -12 c64 -2
116 -7 116 -12 0 -4 -6 -6 -14 -3 -7 3 -18 1 -23 -4 -5 -5 -22 -9 -38 -10 -17
0 -67 -3 -112 -6 -71 -4 -83 -7 -83 -23 0 -22 -21 -20 -80 7 -25 11 -46 16
-48 12 -4 -11 -56 -12 -66 -2 -3 4 4 13 16 20 21 11 21 12 4 13 -13 0 -17 3
-10 10 11 11 182 18 206 8 9 -4 68 -9 132 -10z m-1724 -9 c0 -14 -17 -10 -23
5 -4 10 -1 13 9 9 7 -3 14 -9 14 -14z m500 -3 c0 -2 -7 -7 -16 -10 -8 -3 -12
-2 -9 4 6 10 25 14 25 6z m-870 -58 c0 -5 6 -6 13 -2 9 5 9 4 1 -5 -9 -10 -18
-9 -42 3 -35 18 -46 32 -37 46 7 11 65 -28 65 -42z m426 38 c18 -14 17 -15
-10 -13 -16 1 -31 8 -34 15 -5 16 20 15 44 -2z m297 -24 c-6 -24 -23 -30 -23
-9 0 13 21 39 26 34 2 -2 1 -13 -3 -25z m1266 -1 c9 -6 10 -10 2 -16 -16 -9
-44 2 -36 15 8 12 16 12 34 1z m-1319 -31 c-20 -13 -33 -13 -25 0 3 6 14 10
23 10 15 0 15 -2 2 -10z m-264 -50 c23 0 24 -1 10 -16 -9 -8 -14 -20 -11 -25
4 -5 2 -9 -3 -9 -9 0 -19 20 -39 75 -2 6 1 2 7 -7 6 -10 22 -18 36 -18z m211
4 c-9 -9 -28 6 -21 18 4 6 10 6 17 -1 6 -6 8 -13 4 -17z m-107 -4 c0 -5 -4
-10 -10 -10 -5 0 -10 5 -10 10 0 6 5 10 10 10 6 0 10 -4 10 -10z m-320 -61 c0
-6 -4 -7 -10 -4 -5 3 -10 11 -10 16 0 6 5 7 10 4 6 -3 10 -11 10 -16z m95 1
c3 -5 1 -10 -4 -10 -6 0 -11 5 -11 10 0 6 2 10 4 10 3 0 8 -4 11 -10z"/>
<path d="M1740 1230 c0 -5 5 -10 10 -10 6 0 10 5 10 10 0 6 -4 10 -10 10 -5 0
-10 -4 -10 -10z"/>
<path d="M820 1100 c0 -5 5 -10 11 -10 5 0 7 5 4 10 -3 6 -8 10 -11 10 -2 0
-4 -4 -4 -10z"/>
<path d="M1040 2220 c0 -5 5 -10 10 -10 6 0 10 5 10 10 0 6 -4 10 -10 10 -5 0
-10 -4 -10 -10z"/>
<path d="M1120 2197 c28 -15 62 -11 38 4 -7 5 -24 9 -38 9 l-25 0 25 -13z"/>
<path d="M1856 2047 c3 -10 9 -15 12 -12 3 3 0 11 -7 18 -10 9 -11 8 -5 -6z"/>
<path d="M3056 1862 c-6 -5 24 -31 37 -32 4 0 7 6 7 14 0 14 -34 28 -44 18z"/>
<path d="M2901 1746 c-10 -12 -8 -13 9 -9 25 7 37 23 17 23 -8 0 -20 -6 -26
-14z"/>
<path d="M2850 1720 c-12 -7 -10 -9 8 -7 12 0 22 5 22 9 0 11 -12 10 -30 -2z"/>
<path d="M2788 1703 c7 -3 16 -2 19 1 4 3 -2 6 -13 5 -11 0 -14 -3 -6 -6z"/>
<path d="M2642 1670 c3 -10 19 -15 44 -16 29 -1 32 -1 9 3 -16 3 -36 10 -44
16 -11 10 -13 9 -9 -3z"/>
<path d="M2585 1660 c-3 -5 1 -10 10 -10 9 0 13 5 10 10 -3 6 -8 10 -10 10 -2
0 -7 -4 -10 -10z"/>
<path d="M2625 1620 c-18 -8 -17 -9 8 -9 16 -1 26 3 22 9 -3 6 -7 10 -8 9 -1
0 -11 -4 -22 -9z"/>
<path d="M2688 1623 c6 -2 18 -2 25 0 6 3 1 5 -13 5 -14 0 -19 -2 -12 -5z"/>
<path d="M435 1060 c3 -5 8 -10 11 -10 2 0 4 5 4 10 0 6 -5 10 -11 10 -5 0 -7
-4 -4 -10z"/>
<path d="M490 995 c0 -7 91 -67 96 -63 2 2 -17 19 -41 36 -45 31 -55 37 -55
27z"/>
<path d="M1000 800 c0 -5 5 -10 10 -10 6 0 10 5 10 10 0 6 -4 10 -10 10 -5 0
-10 -4 -10 -10z"/>
<path d="M960 732 c0 -6 38 -10 93 -9 50 0 205 -2 342 -5 177 -5 215 -4 130 2
-207 15 -565 22 -565 12z"/>
<path d="M893 723 c9 -2 25 -2 35 0 9 3 1 5 -18 5 -19 0 -27 -2 -17 -5z"/>
<path d="M745 702 c-1 -2 -48 -5 -104 -7 -106 -4 -141 -10 -141 -26 0 -12 72
-12 104 1 17 6 26 6 26 0 0 -6 25 -10 55 -10 74 0 76 -25 3 -35 -140 -18 -159
-18 -152 -1 3 9 1 16 -5 16 -6 0 -11 -6 -11 -14 0 -7 -14 -28 -31 -45 -43 -45
-59 -27 -25 28 30 47 31 51 12 51 -17 0 -65 -39 -48 -40 6 0 12 -5 12 -11 0
-8 -14 -10 -42 -6 -37 4 -40 4 -18 -6 36 -16 36 -15 11 -38 -13 -12 -30 -19
-42 -16 -10 3 -17 1 -14 -4 3 -4 -11 -24 -32 -43 -25 -24 -33 -36 -22 -36 25
0 79 21 79 31 0 5 7 9 16 9 10 0 13 6 10 18 -4 12 2 21 21 30 15 6 30 9 35 4
10 -10 -41 -74 -53 -66 -5 3 -17 -9 -27 -25 -9 -17 -24 -33 -33 -36 -9 -3 -31
-19 -50 -36 -30 -27 -34 -28 -41 -12 -6 15 -7 15 -7 -4 -1 -27 -31 -32 -31 -5
-1 15 -2 15 -10 1 -5 -9 -30 -24 -55 -33 -25 -10 -45 -24 -45 -32 0 -27 21
-56 36 -50 8 3 14 1 14 -3 0 -5 -4 -11 -10 -13 -6 -2 -4 -13 4 -28 7 -14 21
-38 29 -55 22 -39 15 -42 -26 -11 -19 14 -39 26 -46 26 -7 0 -23 12 -36 28
-22 24 -23 28 -8 39 26 20 7 26 -21 8 -33 -22 -33 -28 5 -60 34 -28 34 -44 -1
-25 -12 6 -24 10 -26 7 -3 -3 19 -18 48 -35 29 -16 62 -39 72 -51 19 -21 19
-21 -12 -21 -17 0 -34 -5 -38 -12 -4 -7 -3 -8 5 -4 7 5 23 -3 38 -18 25 -25
30 -26 142 -25 l116 1 -45 15 c-25 9 -51 23 -58 32 -9 10 -11 11 -6 2 5 -11 3
-13 -10 -8 -10 4 -20 7 -22 7 -3 0 -3 4 0 9 3 4 -5 21 -19 37 -30 34 -27 39
11 19 16 -8 36 -12 45 -10 10 3 19 -1 23 -10 3 -8 12 -15 21 -15 8 0 24 -9 35
-20 14 -14 28 -18 43 -14 40 9 26 32 -32 56 -116 46 -125 60 -35 54 62 -4 160
-53 202 -101 18 -19 32 -40 32 -45 0 -6 17 -10 38 -10 l37 0 -27 14 c-51 27
-53 29 -32 37 19 7 19 7 -1 14 -58 20 -67 26 -62 44 7 27 -11 51 -38 51 -13 0
-27 5 -30 10 -3 6 -1 10 6 10 8 0 8 4 -1 15 -7 8 -10 23 -7 34 5 21 -9 51 -24
51 -6 0 -9 -18 -8 -41 2 -27 -1 -43 -11 -49 -20 -13 -60 -13 -60 0 0 6 4 10 9
10 5 0 12 13 16 29 8 36 37 64 62 59 10 -2 27 7 39 21 17 20 29 24 68 23 26
-1 56 -7 67 -13 22 -11 15 -33 -8 -25 -14 6 -34 -29 -48 -86 -5 -21 -2 -27 17
-32 33 -9 88 -56 66 -56 -10 0 -18 -4 -18 -8 0 -14 23 -32 41 -32 24 0 35 20
18 31 -17 11 36 5 65 -7 16 -6 18 -4 13 9 -3 9 -2 17 3 17 6 0 10 -4 10 -9 0
-5 9 -13 20 -16 11 -4 18 -11 14 -16 -3 -6 -12 -8 -20 -5 -8 3 -14 1 -14 -5 0
-6 -10 -10 -22 -9 -52 5 -68 0 -68 -19 0 -11 -4 -23 -10 -26 -26 -16 -4 -25
58 -24 37 1 58 4 47 6 -44 12 -66 24 -60 33 5 8 11 7 21 -1 7 -6 20 -9 29 -6
8 4 20 -2 28 -13 12 -18 29 -19 248 -20 129 0 248 2 265 6 29 5 31 9 31 45 0
31 -3 39 -18 39 -9 0 -24 3 -33 6 -12 4 -16 0 -16 -15 0 -12 -5 -21 -11 -21
-7 0 -9 10 -6 25 3 19 -2 31 -21 45 -13 11 -30 20 -36 20 -6 0 -28 12 -49 26
-31 20 -41 23 -53 14 -8 -7 -14 -9 -14 -4 0 4 -10 -2 -23 -14 -30 -28 -94 -54
-117 -47 -10 3 -21 1 -25 -5 -3 -5 -11 -10 -17 -10 -6 0 2 11 18 25 19 17 35
23 51 19 14 -4 23 -2 23 5 0 6 -8 11 -17 11 -16 0 -15 2 2 20 13 12 36 20 69
21 28 2 50 8 53 16 4 10 8 9 20 -2 8 -8 20 -15 26 -15 7 0 6 4 -3 10 -8 5 -10
10 -5 11 44 4 73 19 37 19 -15 0 -22 6 -22 18 0 22 44 84 88 125 29 28 31 28
56 12 14 -10 26 -24 26 -33 0 -12 3 -13 12 -4 20 20 27 14 52 -40 12 -29 30
-59 40 -67 14 -12 16 -12 11 2 -9 21 25 57 53 57 27 0 41 -28 21 -41 -10 -6
-11 -11 -3 -17 16 -10 13 -42 -4 -42 -12 0 -12 -3 -1 -16 7 -9 14 -23 15 -32
2 -8 9 -19 16 -23 10 -7 10 -9 0 -9 -10 0 -10 -5 -1 -21 8 -16 8 -24 -1 -33
-8 -8 -10 -7 -5 5 4 11 -4 25 -24 41 -18 16 -32 39 -36 62 -4 20 -12 39 -18
43 -6 4 -8 -2 -5 -15 4 -12 2 -22 -3 -22 -19 0 -8 -30 16 -46 54 -35 21 -86
-62 -100 -24 -4 -43 -10 -43 -15 0 -10 77 -1 102 12 20 11 86 -14 101 -38 12
-19 23 -16 24 6 1 11 -6 22 -15 24 -13 3 -10 7 12 16 22 9 26 14 17 25 -13 15
-5 27 15 19 16 -6 20 22 4 32 -8 5 -2 20 26 63 1 2 12 -1 23 -8 28 -14 27 1
-2 28 -19 18 -26 20 -39 9 -9 -6 -18 -18 -20 -26 -2 -8 -10 12 -17 44 -9 39
-10 60 -3 63 12 4 -18 82 -32 82 -6 0 -20 10 -33 22 -14 13 -35 21 -54 20 -49
-1 -21 16 45 29 48 9 61 8 81 -5 14 -9 31 -16 40 -16 8 0 15 -4 15 -10 0 -15
-26 -12 -40 5 -23 28 -33 17 -27 -34 5 -43 34 -110 58 -135 14 -15 22 20 10
43 -9 16 -7 21 11 27 17 5 27 0 45 -22 16 -21 23 -24 23 -13 0 9 6 19 14 22 9
4 12 14 9 26 -3 13 -1 21 7 21 7 0 -41 52 -106 115 -94 91 -134 123 -192 150
-70 34 -76 35 -146 29 -57 -5 -85 -3 -126 11 -39 13 -71 16 -121 12 -37 -3
-83 -2 -101 3 -33 8 -196 18 -203 12z m645 -81 c-18 -11 -42 -14 -95 -12 -65
2 -20 21 50 21 39 -1 55 -4 45 -9z m-650 -25 c0 -8 -7 -17 -16 -20 -9 -4 -14
-9 -10 -13 3 -3 -1 -15 -11 -25 -21 -24 -78 -24 -92 0 -7 11 -10 12 -11 3 0
-9 -8 -11 -25 -7 -15 4 -25 2 -25 -4 0 -10 -53 -70 -62 -70 -3 0 -8 10 -12 23
-5 18 -8 19 -16 7 -5 -8 -7 -25 -4 -37 7 -26 -19 -58 -41 -49 -8 3 -17 1 -20
-4 -4 -6 -19 -10 -34 -10 -16 0 -40 -11 -57 -26 -18 -17 -30 -22 -32 -15 -5
15 -9 12 69 53 36 19 63 40 61 46 -2 7 9 25 25 41 15 16 41 42 57 59 16 17 44
36 63 43 40 13 58 4 20 -10 -38 -15 -40 -28 -4 -23 17 3 44 14 59 25 19 14 35
18 57 14 17 -4 33 -2 36 3 9 15 25 12 25 -4z m170 -53 c0 -7 7 -13 15 -13 16
0 20 -15 7 -24 -5 -3 -32 4 -61 14 -48 19 -53 19 -76 4 -20 -13 -25 -25 -25
-56 0 -21 -4 -37 -9 -33 -17 10 -2 68 26 97 32 34 80 49 106 34 9 -6 17 -16
17 -23z m501 -16 c7 -25 5 -27 -21 -27 -37 0 -45 14 -23 40 22 25 35 21 44
-13z m59 -17 c0 -5 -7 -10 -15 -10 -8 0 -15 5 -15 10 0 6 7 10 15 10 8 0 15
-4 15 -10z m80 -22 c0 -3 -13 -1 -29 5 -17 6 -28 14 -25 18 5 8 54 -12 54 -23z
m-356 6 c24 -9 19 -26 -5 -19 -14 5 -25 1 -35 -12 -9 -13 -16 -15 -21 -7 -5 7
-19 14 -33 17 -19 3 -16 5 12 6 20 0 40 6 43 11 7 12 17 12 39 4z m-474 -108
c-6 -19 -18 -37 -26 -40 -12 -5 -11 2 5 28 12 18 21 42 22 52 0 11 3 13 6 7 2
-7 0 -28 -7 -47z m240 9 c0 -2 -5 -16 -12 -30 -12 -27 -27 -32 -46 -13 -9 9
-12 7 -12 -12 0 -18 -3 -21 -12 -12 -8 8 -18 5 -40 -13 -47 -40 -70 -26 -26
15 12 11 16 20 9 20 -7 0 -9 5 -5 11 4 8 9 7 15 -2 8 -14 9 -13 73 43 14 13
24 15 37 7 11 -5 19 -12 19 -14z m700 21 c0 -3 -4 -8 -10 -11 -5 -3 -10 -1
-10 4 0 6 5 11 10 11 6 0 10 -2 10 -4z m40 -41 c13 -16 3 -20 -24 -9 -9 3 -13
10 -10 15 8 13 20 11 34 -6z m-1360 -29 c0 -2 -7 -7 -16 -10 -8 -3 -12 -2 -9
4 6 10 25 14 25 6z m-40 -31 c0 -9 -11 -20 -25 -25 -14 -5 -25 -16 -25 -25 0
-8 -5 -15 -11 -15 -6 0 -8 6 -5 13 3 6 9 19 12 27 4 13 14 20 52 39 1 0 2 -6
2 -14z m503 -40 c12 -4 38 -7 57 -5 29 2 32 0 22 -12 -6 -8 -9 -17 -6 -21 3
-3 -4 -3 -15 0 -17 4 -20 2 -15 -11 3 -9 10 -16 16 -16 5 0 7 -4 3 -10 -9 -15
-35 0 -41 26 -7 29 -24 32 -24 4 0 -25 -1 -25 -44 0 -33 18 -36 18 -45 2 -9
-14 -10 -15 -11 -1 0 25 25 53 44 46 12 -5 16 -1 16 17 0 32 14 43 18 13 2
-15 12 -28 25 -32z m72 25 c3 -5 -1 -10 -10 -10 -9 0 -13 5 -10 10 3 6 8 10
10 10 2 0 7 -4 10 -10z m230 -27 l20 -16 -20 8 c-11 4 -28 7 -38 7 -9 0 -15 3
-12 9 9 13 27 11 50 -8z m-795 -3 c0 -5 -4 -10 -10 -10 -5 0 -10 5 -10 10 0 6
5 10 10 10 6 0 10 -4 10 -10z m698 -25 c1 -5 -2 -10 -8 -9 -5 1 -24 2 -41 3
-18 0 -28 5 -24 12 8 13 69 8 73 -6z m-308 -45 c0 -5 -5 -10 -11 -10 -5 0 -7
5 -4 10 3 6 8 10 11 10 2 0 4 -4 4 -10z m240 6 c0 -2 -7 -7 -16 -10 -8 -3 -12
-2 -9 4 6 10 25 14 25 6z m-120 -36 c0 -5 -2 -10 -4 -10 -3 0 -8 5 -11 10 -3
6 -1 10 4 10 6 0 11 -4 11 -10z m33 -20 c3 -11 1 -20 -4 -20 -5 0 -9 9 -9 20
0 11 2 20 4 20 2 0 6 -9 9 -20z m247 -6 c6 -14 10 -33 10 -42 -1 -15 -3 -14
-15 3 -8 11 -19 26 -25 33 -12 13 -5 32 11 32 5 0 14 -12 19 -26z m-985 -4 c3
-11 12 -20 18 -20 7 0 26 -25 44 -55 42 -71 27 -71 -22 0 -21 31 -46 60 -57
66 -21 12 -24 29 -4 29 8 0 18 -9 21 -20z m1378 -60 c-3 -11 -9 -20 -13 -20
-5 0 -6 9 -3 20 3 11 9 20 13 20 5 0 6 -9 3 -20z m-515 -18 c18 -16 32 -32 32
-35 0 -4 -25 -7 -55 -7 -30 0 -55 2 -55 3 0 11 33 67 39 67 4 0 22 -13 39 -28z
m222 -3 c0 -10 -7 -19 -15 -19 -16 0 -19 9 -9 34 8 20 24 11 24 -15z"/>
<path d="M265 620 c3 -5 13 -10 21 -10 8 0 14 5 14 10 0 6 -9 10 -21 10 -11 0
-17 -4 -14 -10z"/>
<path d="M310 600 c0 -5 5 -10 10 -10 6 0 10 5 10 10 0 6 -4 10 -10 10 -5 0
-10 -4 -10 -10z"/>
<path d="M1236 251 c-3 -5 1 -11 9 -14 9 -4 12 -1 8 9 -6 16 -10 17 -17 5z"/>
<path d="M1270 251 c0 -5 5 -13 10 -16 6 -3 10 -2 10 4 0 5 -4 13 -10 16 -5 3
-10 2 -10 -4z"/>
<path d="M520 229 c0 -5 5 -7 10 -4 6 3 10 8 10 11 0 2 -4 4 -10 4 -5 0 -10
-5 -10 -11z"/>
<path d="M95 209 c-9 -14 -2 -20 14 -10 8 6 9 11 3 15 -6 3 -14 1 -17 -5z"/>
<path d="M2257 190 c-15 -16 -27 -32 -27 -36 0 -10 45 8 62 26 14 15 15 20 4
29 -10 8 -19 3 -39 -19z"/>
<path d="M1290 190 c6 -11 13 -20 16 -20 2 0 0 9 -6 20 -6 11 -13 20 -16 20
-2 0 0 -9 6 -20z"/>
<path d="M1655 150 c3 -5 8 -10 11 -10 2 0 4 5 4 10 0 6 -5 10 -11 10 -5 0 -7
-4 -4 -10z"/>
<path d="M2160 134 c-30 -26 -31 -26 -45 -8 -13 18 -16 17 -45 -18 -17 -21
-38 -38 -46 -38 -19 0 -156 -62 -150 -68 3 -2 30 6 60 19 58 23 79 21 56 -6
-12 -14 -4 -15 79 -13 l93 3 34 65 c48 89 31 120 -36 64z"/>
<path d="M1302 139 c2 -7 10 -15 17 -17 8 -3 12 1 9 9 -2 7 -10 15 -17 17 -8
3 -12 -1 -9 -9z"/>
<path d="M2348 133 c7 -3 16 -2 19 1 4 3 -2 6 -13 5 -11 0 -14 -3 -6 -6z"/>
<path d="M2245 120 c-4 -6 6 -7 27 -3 44 8 48 13 10 13 -17 0 -34 -4 -37 -10z"/>
<path d="M572 101 c4 -13 18 -16 19 -4 0 4 -5 9 -11 12 -7 2 -11 -2 -8 -8z"/>
<path d="M2390 83 c8 -4 35 -23 59 -45 39 -34 50 -38 95 -38 l51 1 -40 24
c-22 14 -47 25 -55 25 -8 0 -30 9 -48 20 -18 11 -42 20 -55 19 -15 0 -17 -2
-7 -6z"/>
<path d="M2657 42 c-29 -32 -20 -40 48 -40 61 0 64 1 55 19 -22 40 -76 51
-103 21z"/>
<path d="M2836 38 c-22 -32 -21 -34 24 -34 22 0 40 1 40 2 0 2 -4 14 -10 28
-12 32 -34 33 -54 4z"/>
<path d="M444 35 c11 -8 22 -12 25 -9 6 6 -19 24 -34 24 -5 -1 -1 -7 9 -15z"/>
<path d="M2192 28 c-23 -23 -12 -28 56 -27 60 1 62 2 25 8 -23 4 -48 12 -55
19 -11 9 -17 9 -26 0z"/>
<path d="M490 21 c0 -5 -8 -12 -17 -14 -10 -3 -1 -5 21 -6 33 -1 37 1 26 14
-14 17 -30 20 -30 6z"/>
<path d="M2370 10 c-11 -7 -2 -10 33 -10 30 0 46 4 42 10 -8 13 -55 13 -75 0z"/>
</g>
</svg>
